/* XPM */
static char *b25705685d074551ee9947c068f08b0aRMxqndtO9kKOqlPY[] = {
/* columns rows colors chars-per-pixel */
"32 32 59 1 ",
"  c #8C7A2C",
". c #9C8932",
"X c #AA9639",
"o c #9F8C34",
"O c #A28E35",
"+ c #A69137",
"@ c #AE9B3A",
"# c #8A782A",
"$ c #917E2E",
"% c #F9ED51",
"& c #E4D052",
"* c #B29E3C",
"= c #C0AA44",
"- c #B22317",
"; c #CEBD47",
": c #C0AE40",
"> c #B7A33E",
", c #9B792E",
"< c #8E7C2D",
"1 c #A72116",
"2 c #A35424",
"3 c #CC2A1D",
"4 c #988530",
"5 c #A98936",
"6 c #A54D23",
"7 c #C0271A",
"8 c #9E1F14",
"9 c #9F4620",
"0 c #D7C64B",
"q c #94822F",
"w c #926727",
"e c #A1692B",
"r c #AF973A",
"t c #A79437",
"y c #B5381E",
"u c #BCA83E",
"i c #9D8431",
"p c #BF2E1C",
"a c #837227",
"s c #A3732E",
"d c #AB9339",
"f c #C3331E",
"g c #C3B241",
"h c #9E361B",
"j c #6B5D1E",
"k c #CAB944",
"l c #A78233",
"z c #A02D19",
"x c #AF4320",
"c c #A9391D",
"v c #A16228",
"b c #964F22",
"n c #7D6D25",
"m c #98712B",
"M c #A85B27",
"N c #926A27",
"B c #B02C1A",
"V c #B7321D",
"C c #F3E550",
/* pixels */
"*0k::==========ot0;g===========>",
":C&&&&&&&&&&&&&*uC&&&&&&&&&&&&&;",
"g%%%%%%%%%%%%%C::%%%%%%%%%%%%%%&",
"@0000;;;;;;;;k:.O0000;;;;;;;;;k*",
".*rrXXXXXXXXXX+#q>XrXXXXXXXXXXt.",
".>g:++i,,,,$*:d#q*:*.,,,,,O>kuO.",
"q*;*Oi6yyyybu:O#$*;@NcyyyhN>k*q.",
"$@>.+sf37736=*.# *gOwf377-bXXOq.",
" XoooOMp18-6u@o# @gowp-81clOo.4.",
"j+oe,O521889u@o# rgowp-8hsO.e,+$",
"j.efx,O52119>@o  r:owf7hsO.vV9d ",
"j.233xiO56-6>Xo  @uowpVs+oeV7cr<",
"j.23-p2iOl99*+o  @*.whv+osy-1hr ",
"j.vp-1p2i+ler4.  rXqme+osy-119r$",
"at56-1-pMiOrt4o# XOO+dO,x3-7VsX4",
"$@>59117BwO@:.4#<t.>>t,9777Ver@.",
"<*0u5M222eO:;: # +>kX.,2222er>o.",
"<*k*ddd+++.u0;a# tk0#a.+d++Xg*q.",
"$*:OO.444.q@:un# +>=aa4444q+gXq.",
"$@>O,266bN4<<#a# o  namb666v+Oq.",
"<Xtix333BeOaaj<# +nna$,h333fvoo.",
"$r.27--B2OO$#a. <X<##.+sx3--yst.",
"nOvp181M5o,w>:t  @g*mwi+,c717xd4",
"j.231125O,x6=uO  @ktwcvo+sy7-cr<",
"j.23-9lOi636=*o# @gowffmo+eB-hr<",
"j.ez9lOi2p-9u@o# @:oNf3yeo+ez9d<",
"jodsl+i2p189>@o# @:owp--cmo+slX ",
"nX:@+.Mf-889>@o  @:owf-81h,oX@X$",
"<*0>+my3-889*Xo# @uowf7881bt@>.4",
"$@>@XObBzz8b*O.  @*4Nhzzzhs*:tq4",
"$+$ <o55555+X$4# dO#<l5555O+.##i",
"#q   <$$$$$$< <a#4< <$$$$$<$<  #"
};
