/* XPM */
static char *_4b4dd4099d544a7bf3d7885a429134eB9fnSDMFRj9w39eZ[] = {
/* columns rows colors chars-per-pixel */
"32 32 4 1 ",
"  c #79A130",
". c #769D2E",
"X c #7CA631",
"o c #81AB34",
/* pixels */
"  .... XXXX     .. . .. XXXXX ..",
".... .  XXX.   X   . .. .XXXX...",
".. X .... .... oX     .     ..XX",
" XXX .. . ...  X  X Xo . .....Xo",
"Xoo  . XX   XX  ..  XoXX .....Xo",
"Xo  .. ooXXXo   .... XXoX.. .. X",
" . .... ooXo .. ....  X ..   .  ",
".. ... . X o ...  ....      X ..",
". .  X ....  ..... ... . Xo XX  ",
"... ooX X     .. X ...    oX.   ",
"... XooooX . .   oX  . .    ... ",
"..   XooX . X .   oXX  ........ ",
"... .    .  XX o  oXo .  ...    ",
" .X . ...   Xo X   .   oXX .Xoo ",
"  oXXo ..  .     . . .  ooo ooX ",
". XoXo . oX  . ..   ...  oooXX .",
" .     . XoXX ... .. ...  XX  ..",
" .   ..  XoXoX ..    .    X  .. ",
"  Xo . .  X   ... oX       .   .",
"XooX .....  .  . .XoX oX ... XX ",
"ooX .......    . . o XX .....Xoo",
"oX     . ... oX   .  X . .... Xo",
" . . Xo      ooXXoX     ..  ..  ",
".   .XoXo .  XoXoX .         .  ",
"..... X   ... X X    XX   oX  ..",
" .... .... ...  ...  XooXXoo  ..",
" ...    . oX    ... ..XoXoX   ..",
"  X  XXX  ooX oX   ....XX ..    ",
"XoX  ooX .XoXXX  XX  .   ... XX ",
"oo   Xo .. X X . XooX XX  .. XoX",
"oo    X ..    ... XoXXoX..... oo",
"X .  .. .. XX.. .  X XX....  . X"
};
