/* XPM */
static char *_8e64bb1b86b4189a300f1bdbdcf1406Zidi4i1KECHGxf78[] = {
/* columns rows colors chars-per-pixel */
"32 32 165 2 ",
"   c None",
".  c #7C620D",
"X  c #726217",
"o  c #7B6510",
"O  c #595621",
"+  c #656424",
"@  c #6C6623",
"#  c #6E6927",
"$  c #636729",
"%  c #6A6A2E",
"&  c #726821",
"*  c #7D6F22",
"=  c #7B7129",
"-  c #6D6D31",
";  c #626C36",
":  c #786F34",
">  c #7A6A39",
",  c #767636",
"<  c #7B7534",
"1  c #60725C",
"2  c #815A0B",
"3  c #846815",
"4  c #83691B",
"5  c #886D1C",
"6  c #976E1E",
"7  c #94701E",
"8  c #836F23",
"9  c #8A6F25",
"0  c #847124",
"q  c #86732B",
"w  c #947426",
"e  c #9C7525",
"r  c #997A20",
"t  c #907629",
"y  c #9B772D",
"u  c #957B2C",
"i  c #9D7B2B",
"p  c #877930",
"a  c #81723B",
"s  c #8A753E",
"d  c #8C7333",
"f  c #957B33",
"g  c #9A7932",
"h  c #92783F",
"j  c #987A3A",
"k  c #A37A23",
"l  c #A47D2A",
"z  c #8B7D40",
"x  c #92822D",
"c  c #888437",
"v  c #9B8136",
"b  c #93803B",
"n  c #9D8C3D",
"m  c #A58025",
"M  c #A3832C",
"N  c #AC812A",
"B  c #AF8E2F",
"V  c #B68B22",
"C  c #B3892A",
"Z  c #B88C29",
"A  c #B69025",
"S  c #BC922F",
"D  c #BB9123",
"F  c #A28734",
"G  c #A38B34",
"H  c #AC8A33",
"J  c #A0863A",
"K  c #A98C3B",
"L  c #AC8333",
"P  c #B28A31",
"I  c #B98E30",
"U  c #A2923C",
"Y  c #AD933F",
"T  c #BC9736",
"R  c #B3933D",
"E  c #BE953B",
"W  c #B1983C",
"Q  c #BC9B3B",
"!  c #C39B2D",
"~  c #CB9E2E",
"^  c #C39B34",
"/  c #C99B34",
"(  c #C59C3A",
")  c #C99F3B",
"_  c #C8A32E",
"`  c #CDA433",
"'  c #D1A333",
"]  c #D4A53B",
"[  c #D3AB3D",
"{  c #DCAE3C",
"}  c #D3B03A",
"|  c #D8B13C",
" . c #E5B23F",
".. c #808040",
"X. c #8E864C",
"o. c #93844B",
"O. c #958A4E",
"+. c #978447",
"@. c #9D934C",
"#. c #8F8851",
"$. c #9D8859",
"%. c #9E925E",
"&. c #A48D46",
"*. c #A38A48",
"=. c #A59445",
"-. c #A29549",
";. c #AA914E",
":. c #A8994D",
">. c #B19341",
",. c #B89543",
"<. c #BB9C43",
"1. c #B79E4A",
"2. c #B89B4F",
"3. c #A79253",
"4. c #B09A5E",
"5. c #B9A046",
"6. c #BCA04C",
"7. c #BBA45E",
"8. c #A9986A",
"9. c #AFAB64",
"0. c #BAAD76",
"q. c #B3A37F",
"w. c #C5A343",
"e. c #C8A644",
"r. c #C2A14D",
"t. c #CEA448",
"y. c #C6A94D",
"u. c #CDA84D",
"i. c #D3AA41",
"p. c #D4A648",
"a. c #D1A949",
"s. c #D9B244",
"d. c #D5B24C",
"f. c #DCB44D",
"g. c #C6AE56",
"h. c #C9AA50",
"j. c #D4AB51",
"k. c #DFB354",
"l. c #DBB850",
"z. c #DCB55A",
"x. c #E1B646",
"c. c #E3B94A",
"v. c #E4BB54",
"b. c #EABD52",
"n. c #E2BE5E",
"m. c #E0C04F",
"M. c #ECC557",
"N. c #E6C159",
"B. c #EEC95C",
"V. c #AEA78A",
"C. c #ADAF88",
"Z. c #BDAF94",
"A. c #B8BC97",
"S. c #BACCBF",
"D. c #C7C094",
"F. c #D5D09F",
"G. c #C0C5BA",
"H. c #D1D7B6",
"J. c #D1D4BF",
"K. c #D8D0BB",
"L. c #CFD8C5",
"P. c #DFD7C1",
"I. c #D0D3CA",
"U. c #D7DBCC",
"Y. c #D0E2C5",
/* pixels */
"                                                                ",
"                                                                ",
"                                                                ",
"                                                                ",
"                                                                ",
"                                                                ",
"                                                                ",
"                                                                ",
"                              @.*.&.@.                          ",
"                            -.y.z.E 6.=.                        ",
"                            g.d./ S ( R U c                     ",
"                ..        X.<.f.~ ] / ^ B F X ,                 ",
"            :.1.G U n 9.F.%.2.n.s._ | ` V S ,.n O.              ",
"          U h.a.( w.W =.0.o.g u.l.M.c.` x.[ ) r.&.O.            ",
"          5.z.p.Z ) w.>.3.4.7 P E E C i.c.! A w.r.&.O.          ",
"        * <.k./ ] ^ T <.;.*.w l i e N a.[ ! ` ^ Q K o.          ",
"        < H b. .{ s.a.R J 7.9 u F F l t.v.[ } m.e.J 8.          ",
"          0 w.b.M.N.w.i 4 t v 4 o . 2 N f.B.B.d.H g q.J.        ",
"            * Y K F 5 3 H R R G M r 6 l C I E m w h Z.U.        ",
"              : o.+.f >.j.a.Q w.T m 7 e k k l e g s V.L.        ",
"                A.D.3.,.v.' D ! ) I l i H H L i 9 z C.Y.        ",
"                    +.r.f.~ ' ` ( P w t u u y g f <             ",
"                    a K f.c.{ c.t.M 8 = p b j d &               ",
"                    O q <.f.v.d.M 8 # $ - #.$.>                 ",
"                      + 0 F G x q #       H.K.P.                ",
"                        + @ @ + % ;       1 I.G.                ",
"                                              S.                ",
"                                                                ",
"                                                                ",
"                                                                ",
"                                                                ",
"                                                                "
};
