/* XPM */
static char *_a69a4544da745fa9a2f85dc4761febfdQBYoD4Alc4IADva[] = {
/* columns rows colors chars-per-pixel */
"32 32 209 2 ",
"   c None",
".  c #190E0A",
"X  c #021C13",
"o  c #0C1B14",
"O  c #0E161B",
"+  c #0C1C1C",
"@  c #061711",
"#  c #131313",
"$  c #1B1517",
"%  c #14151B",
"&  c #1C161C",
"*  c #131B1C",
"=  c #1B1B1C",
"-  c #181C14",
";  c #2C0C17",
":  c #241514",
">  c #22161C",
",  c #23191B",
"<  c #2C1E1D",
"1  c #371917",
"2  c #0A2313",
"3  c #0D221C",
"4  c #092914",
"5  c #13221C",
"6  c #17241A",
"7  c #1B0D24",
"8  c #051D24",
"9  c #0B1B22",
"0  c #0B1C2B",
"q  c #0A1720",
"w  c #141324",
"e  c #1A1523",
"r  c #131B23",
"t  c #1C1B24",
"y  c #131B2C",
"u  c #1B1A2B",
"i  c #0E1D30",
"p  c #141534",
"a  c #141C33",
"s  c #191B32",
"d  c #201C25",
"f  c #231C2C",
"g  c #281925",
"h  c #221B35",
"j  c #0C2422",
"k  c #0E212A",
"l  c #0E2B20",
"z  c #152121",
"x  c #1A2323",
"c  c #15232E",
"v  c #1F232C",
"b  c #0E3222",
"n  c #0B2B3B",
"m  c #172637",
"M  c #212123",
"N  c #2F2A2E",
"B  c #27272D",
"V  c #3D232C",
"C  c #34282A",
"Z  c #292939",
"A  c #352A36",
"S  c #223030",
"D  c #38333A",
"F  c #42302E",
"G  c #462A37",
"H  c #522A33",
"J  c #40373A",
"K  c #4C333A",
"L  c #4C3231",
"P  c #523C3D",
"I  c #583C3C",
"U  c #252F43",
"Y  c #2C2E44",
"T  c #282B4A",
"R  c #3B2E47",
"E  c #312E4C",
"W  c #3D2D48",
"Q  c #2F3647",
"!  c #283347",
"~  c #333144",
"^  c #393347",
"/  c #30304C",
"(  c #3B3A4D",
")  c #373848",
"_  c #2E3552",
"`  c #363C56",
"'  c #3A3C55",
"]  c #363D5B",
"[  c #3B3D5B",
"{  c #363353",
"}  c #3D3F61",
"|  c #363C60",
" . c #412D46",
".. c #423E43",
"X. c #433C4B",
"o. c #4D3A49",
"O. c #493648",
"+. c #553D46",
"@. c #413E54",
"#. c #493D52",
"$. c #413D5B",
"%. c #4A3D5B",
"&. c #403F61",
"*. c #3A4055",
"=. c #3C425C",
"-. c #344158",
";. c #374545",
":. c #3E4262",
">. c #374464",
",. c #4D424D",
"<. c #474745",
"1. c #5B4243",
"2. c #5A444C",
"3. c #5D4B4C",
"4. c #514745",
"5. c #54534F",
"6. c #434154",
"7. c #42425C",
"8. c #544553",
"9. c #5A4352",
"0. c #574C53",
"q. c #5A4C55",
"w. c #584A5C",
"e. c #4F5853",
"r. c #5A545D",
"t. c #62444D",
"y. c #654D4C",
"u. c #6E4C4B",
"i. c #634D54",
"p. c #6B4B57",
"a. c #6B5555",
"s. c #625159",
"d. c #705B5D",
"f. c #7F5354",
"g. c #4B6B54",
"h. c #486656",
"j. c #54645E",
"k. c #52715F",
"l. c #74605F",
"z. c #424263",
"x. c #494867",
"c. c #564563",
"v. c #575062",
"b. c #675163",
"n. c #6B5E64",
"m. c #665A66",
"M. c #7E5D64",
"N. c #7E5460",
"B. c #735E74",
"V. c #4B6D60",
"C. c #546462",
"Z. c #5C6B64",
"A. c #576965",
"S. c #547760",
"D. c #6C606C",
"F. c #7D6366",
"G. c #75646B",
"H. c #7A6B6B",
"J. c #766B6F",
"K. c #7B7167",
"L. c #646574",
"P. c #6E6172",
"I. c #776C72",
"U. c #7B6D74",
"Y. c #746D7F",
"T. c #7D727A",
"R. c #797074",
"E. c #825C65",
"W. c #8B5D63",
"Q. c #825761",
"!. c #856A6B",
"~. c #826868",
"^. c #926C69",
"/. c #856974",
"(. c #9C6F72",
"). c #867475",
"_. c #9C737B",
"`. c #987777",
"'. c #A2867B",
"]. c #7C7181",
"[. c #887C88",
"{. c #957986",
"}. c #877D95",
"|. c #7D838F",
" X c #6B8A99",
".X c #7D8292",
"XX c #78879A",
"oX c #8B848B",
"OX c #888794",
"+X c #939099",
"@X c #A08993",
"#X c #A88B85",
"$X c #C79D9E",
"%X c #C4A39C",
"&X c #D5A29E",
"*X c #CB9EA1",
"=X c #C9A0A4",
"-X c #D3B4AF",
";X c #C7B7B7",
":X c #DDB8B8",
">X c #E3B2AD",
",X c #E1B6B5",
"<X c #E4BFBB",
"1X c #E2BBB6",
"2X c #D8C6BE",
"3X c #DCC4CB",
"4X c #D7C8CC",
"5X c #E7C4C8",
"6X c #E3CED7",
/* pixels */
"                              C.Z.                              ",
"                    2 S r r + 5 * + 8 8 k 9 x                   ",
"                  h.+ O w y q O O r c 0 0 c O o                 ",
"                V.X c Q Y Y Q Q ) Z ! ! U U v z                 ",
"              b j c a / [ 7.` ` ' ' *.=.=.Y w r 9 l             ",
"              X k U T x.[ [ =.[ $.7.[ ` =.7.( Z y j             ",
"              j i _ x.{ [ z.} [ z.[ :.:.` [ $./ a k             ",
"              9 a T } &.[ [ [ :.[ z.[ ] :.=.' E p c             ",
"            A.9 y _ [ [ 7.[ ` [ z.[ =.=.=.[ $.E p c             ",
"            Z.O u / ' ' ` ` ` z.[ [ =.[ [ [ 7.E h r             ",
"            j.r e ~ 7.*.*.*.*.=.[ [ =.` *.=.' Y w t             ",
"          6 5 % f ~ @.*.*.=.=.` [ [ =.` =.=.' ^ f d *           ",
"          o = r.T.r.X.' ` =.=.=.=.[ [ ` =.[ @.v.T.0.r +         ",
"          o = R.4XT.X.6.7.] [ :.[ [ [ =.` ' 7.].4X).e 9         ",
"          + % I.4XU.( @.=.[ } :.[ [ [ $.[ ' 7.[.2XH.f y         ",
"          * & J.;XU.,.6.' [ :.| =.[ [ $.@.@.X.U.;XH.w c         ",
"          5 % N J D.I.,.,.6.] >.-.=.[ $.#.8.!.d.J D u +         ",
"            Z.% = 0.G.i.2.8.x.] =.=.%.c.9.i.~.2.t z C.          ",
"            A.+ * , V E._.{.B.c.$.%./._._.M.V > * 5 j.          ",
"          3 @ e.5.3.p.Q.W.N.p.W { R p.f.W.E.9.r.4.<.-           ",
"        Z.# - K.2X5X5XE.H ; g e u e : 1 L M.3X6X3X).. 6         ",
"    S.@ * 0.~.'.%X#X/.t.K K A N B D F L K +.{.@X=X`.!.4.+       ",
"    g.3 w b.5X$X^.I g  .o.G.3.K D o.y.u.t.G 7 o.(.&X<Xa.= z     ",
"      3 % b.5X,X%Xt.e ^ X.,.i.2.q.q.1.t.O. .f w.*X>X<Xy.t *     ",
"      X * s.:X,X-Xa.d ~ ^ #.w.B.P.m.0.o.O.R u q.:X1X;Xr.9 j     ",
"      4 o <.1.I P C e u ( Y.}.}..X|.OX].A d t N P 1...;.j       ",
"          - = & e d f f ..+X.XXX X XOX[.+.g % r t w * 5         ",
"          2 + r r % B D.R.oXL.m n n L.).`.l.M r 9 9 3 4         ",
"                  + B n./.G.w.s a u s.F.F.d.# z                 ",
"                    * $ : , t r r   : < , $ M o                 ",
"                    + * - 6 @ k.g.  2 o j + z                   ",
"                                                                "
};
