/* XPM */
static char *c0e3babdddd443fcec7b742ad74e59bbWbsPCNtn8nzhziNv[] = {
/* columns rows colors chars-per-pixel */
"32 32 17 1 ",
"  c #A7956A",
". c #A59269",
"X c #6C5A46",
"o c #77634D",
"O c #A28F67",
"+ c #917E5D",
"@ c #8D775B",
"# c #978261",
"$ c #A9966B",
"% c #5B4B3A",
"& c #9B8763",
"* c #897358",
"= c #B19E71",
"- c #BBA678",
"; c #806D52",
": c #7C6850",
"> c #C8B382",
/* pixels */
"%:ooooooo:oooooo::oooooo::ooo:oo",
"X&@@@@@:*&@@@@*:+#@@@@*o##@@@@*o",
";- .  &:#-.. .#;$=....+o$=....@o",
";-====O;#-====O;$-====&:$-====#:",
":----- ;@-----.;O-----OoO-----#o",
"%;ooooX%X;ooooX%o:ooooX%o;ooooX%",
"%XXXXXX%%XXXXXX%%XXXXXX%%XXXXXX%",
"%*@@@@*XX***@@*Xo@**@@*%o@@@@**X",
"X#&&&&+o:&&&&&+o*&&&&&+X*#&&&&@X",
"XO OO &o;&O.OO#o@OO &O#X+OOOO.@X",
"XO OO$#o;OO .O#o@.  OO+X+.O&. @X",
"X.    #o;OO  .#o@OO . #X+$ O. @X",
"XO ..$&o;.. ..#o@.. OO+X+$ . .@X",
"XO    &o;O. ..#X@O. ..+X+$ O..@X",
"XO$.. #o;.  .O#o+   OO+X+$ .. @X",
"XO$.O #o;.    #o+$    +X+$ O. @X",
"XO$   #o;O.   #o+$    +X+$ .  @X",
"XO    #o;.    #o+$$   +X+$ O. @X",
"XO $$ &o;     #o+ $$  +X+$   .@X",
"XO   .&o;     #o+$$  $+X+$$ ..@X",
"XO  .O#o; $   #o@$    +X+$   .@X",
"XO    &o;     #o@$  $ +X+ O. .@X",
"X.   $&o;  .  #o@..O. #X+$.  .@X",
"XO....&o;  .O #o+OO.  #X+ O. .@X",
"XO..OO&o;  .. #o+..O.$+X+$. O.@X",
"X..O..&o; $.O$#o+OOOO$#X+$O...@X",
"X##+++@Xo#&#+#@X;+++#&*X*&+#+#;X",
"%%%%%%%%%%%%%%%%%%%%%%%%%%%%%%%%",
"X#****;X:+****;X*+****;X@+****;X",
":-....#o+=....+oO=....+XO=...O@X",
";-====&o+-====&o.-====#o -===$+X",
";>>>>>=;+>>>>>=*.>>>>>=:$>>>>>.:"
};
